<?xml version="1.0" encoding="UTF-8"?>
<svg width="128" height="128" viewBox="0 0 128 128" xmlns="http://www.w3.org/2000/svg">
  <!-- Background -->
  <rect width="128" height="128" rx="16" fill="#2d5a27"/>
  
  <!-- Server/Block representation -->
  <rect x="20" y="20" width="88" height="88" rx="8" fill="#4a7c59" stroke="#1a3d1a" stroke-width="2"/>
  
  <!-- Grid pattern like Minecraft blocks -->
  <g stroke="#3a5c3a" stroke-width="1" opacity="0.5">
    <line x1="20" y1="40" x2="108" y2="40"/>
    <line x1="20" y1="60" x2="108" y2="60"/>
    <line x1="20" y1="80" x2="108" y2="80"/>
    <line x1="40" y1="20" x2="40" y2="108"/>
    <line x1="60" y1="20" x2="60" y2="108"/>
    <line x1="80" y1="20" x2="80" y2="108"/>
  </g>
  
  <!-- Server icon in center -->
  <rect x="45" y="45" width="38" height="38" rx="4" fill="#1a3d1a"/>
  <rect x="50" y="50" width="8" height="8" rx="1" fill="#4CAF50"/>
  <rect x="62" y="50" width="8" height="8" rx="1" fill="#4CAF50"/>
  <rect x="74" y="50" width="4" height="8" rx="1" fill="#4CAF50"/>
  <rect x="50" y="62" width="28" height="4" rx="1" fill="#4CAF50"/>
  <rect x="50" y="70" width="28" height="8" rx="1" fill="#4CAF50"/>
  
  <!-- Gears/settings overlay -->
  <circle cx="85" cy="43" r="8" fill="#FF9800" opacity="0.9"/>
  <path d="M85 38 L87 40 L85 42 L83 40 Z" fill="#fff"/>
  <circle cx="85" cy="43" r="3" fill="#fff"/>
</svg>
